<svg width="123" height="31" viewBox="0 0 123 31" fill="none" xmlns="http://www.w3.org/2000/svg">
<path d="M10.124 24.576C8.708 24.576 7.388 24.384 6.164 24C4.964 23.592 3.908 22.992 2.996 22.2C2.108 21.408 1.4 20.412 0.872 19.212C0.368 18.012 0.116 16.608 0.116 15C0.116 13.416 0.368 12.06 0.872 10.932C1.4 9.78 2.084 8.844 2.924 8.124C3.764 7.38 4.724 6.84 5.804 6.504C6.884 6.144 7.988 5.964 9.116 5.964C10.388 5.964 11.54 6.156 12.572 6.54C13.628 6.924 14.528 7.452 15.272 8.124C16.04 8.796 16.628 9.6 17.036 10.536C17.468 11.472 17.684 12.492 17.684 13.596C17.684 14.412 17.456 15.036 17 15.468C16.544 15.9 15.908 16.176 15.092 16.296L6.2 17.628C6.464 18.42 7.004 19.02 7.82 19.428C8.636 19.812 9.572 20.004 10.628 20.004C11.612 20.004 12.536 19.884 13.4 19.644C14.288 19.38 15.008 19.08 15.56 18.744C15.944 18.984 16.268 19.32 16.532 19.752C16.796 20.184 16.928 20.64 16.928 21.12C16.928 22.2 16.424 23.004 15.416 23.532C14.648 23.94 13.784 24.216 12.824 24.36C11.864 24.504 10.964 24.576 10.124 24.576ZM9.116 10.428C8.54 10.428 8.036 10.524 7.604 10.716C7.196 10.908 6.86 11.16 6.596 11.472C6.332 11.76 6.128 12.096 5.984 12.48C5.864 12.84 5.792 13.212 5.768 13.596L11.924 12.588C11.852 12.108 11.588 11.628 11.132 11.148C10.676 10.668 10.004 10.428 9.116 10.428ZM19.482 9.348C19.674 8.436 20.046 7.692 20.598 7.116C21.174 6.54 21.882 6.252 22.722 6.252C23.514 6.252 24.126 6.444 24.558 6.828C24.99 7.212 25.47 7.752 25.998 8.448L28.302 11.472L32.154 6.252C33.474 6.252 34.518 6.492 35.286 6.972C36.054 7.428 36.438 8.052 36.438 8.844C36.438 9.156 36.39 9.444 36.294 9.708C36.222 9.948 36.102 10.2 35.934 10.464C35.766 10.728 35.55 11.028 35.286 11.364C35.022 11.7 34.71 12.096 34.35 12.552L31.974 15.216L36.69 21.444C36.57 22.356 36.21 23.076 35.61 23.604C35.01 24.132 34.29 24.396 33.45 24.396C32.538 24.372 31.806 24.108 31.254 23.604C30.726 23.1 30.21 22.488 29.706 21.768L27.762 18.996L24.09 24.288C23.97 24.288 23.838 24.288 23.694 24.288C23.55 24.312 23.43 24.324 23.334 24.324C22.11 24.324 21.174 24.072 20.526 23.568C19.902 23.064 19.59 22.44 19.59 21.696C19.59 21.12 19.722 20.616 19.986 20.184C20.274 19.728 20.754 19.116 21.426 18.348L24.306 15L19.482 9.348ZM47.3258 5.964C48.7658 5.964 50.0978 6.156 51.3218 6.54C52.5698 6.9 53.6378 7.464 54.5258 8.232C55.4138 9 56.1098 9.972 56.6138 11.148C57.1178 12.3 57.3698 13.68 57.3698 15.288C57.3698 16.824 57.1538 18.168 56.7218 19.32C56.2898 20.472 55.6778 21.444 54.8858 22.236C54.0938 23.004 53.1338 23.58 52.0058 23.964C50.9018 24.348 49.6658 24.54 48.2978 24.54C47.2658 24.54 46.3058 24.384 45.4178 24.072V30.048C45.1778 30.12 44.7938 30.192 44.2658 30.264C43.7378 30.36 43.1978 30.408 42.6458 30.408C42.1178 30.408 41.6378 30.372 41.2058 30.3C40.7978 30.228 40.4498 30.084 40.1618 29.868C39.8738 29.652 39.6578 29.352 39.5138 28.968C39.3698 28.608 39.2978 28.128 39.2978 27.528V10.248C39.2978 9.6 39.4298 9.072 39.6938 8.664C39.9818 8.256 40.3658 7.884 40.8458 7.548C41.5898 7.068 42.5138 6.684 43.6178 6.396C44.7218 6.108 45.9578 5.964 47.3258 5.964ZM47.3978 19.716C49.8698 19.716 51.1058 18.24 51.1058 15.288C51.1058 13.752 50.7938 12.612 50.1698 11.868C49.5698 11.124 48.6938 10.752 47.5418 10.752C47.0858 10.752 46.6778 10.812 46.3178 10.932C45.9578 11.028 45.6458 11.148 45.3818 11.292V19.212C45.6698 19.356 45.9818 19.476 46.3178 19.572C46.6538 19.668 47.0138 19.716 47.3978 19.716ZM66.5844 23.964C66.3204 24.012 65.9244 24.072 65.3964 24.144C64.8924 24.24 64.3764 24.288 63.8484 24.288C63.3204 24.288 62.8404 24.252 62.4084 24.18C62.0004 24.108 61.6524 23.964 61.3644 23.748C61.0764 23.532 60.8484 23.244 60.6804 22.884C60.5364 22.5 60.4644 22.008 60.4644 21.408V0.528C60.7284 0.479999 61.1124 0.419999 61.6164 0.348C62.1444 0.252 62.6724 0.204 63.2004 0.204C63.7284 0.204 64.1964 0.239999 64.6044 0.311998C65.0364 0.383999 65.3964 0.527999 65.6844 0.743999C65.9724 0.959999 66.1884 1.26 66.3324 1.644C66.5004 2.004 66.5844 2.484 66.5844 3.084V23.964ZM88.5542 15.252C88.5542 16.74 88.3262 18.072 87.8702 19.248C87.4142 20.4 86.7662 21.372 85.9262 22.164C85.1102 22.956 84.1262 23.556 82.9742 23.964C81.8222 24.372 80.5382 24.576 79.1222 24.576C77.7062 24.576 76.4222 24.36 75.2702 23.928C74.1182 23.496 73.1222 22.884 72.2822 22.092C71.4662 21.276 70.8302 20.292 70.3742 19.14C69.9182 17.988 69.6902 16.692 69.6902 15.252C69.6902 13.836 69.9182 12.552 70.3742 11.4C70.8302 10.248 71.4662 9.276 72.2822 8.484C73.1222 7.668 74.1182 7.044 75.2702 6.612C76.4222 6.18 77.7062 5.964 79.1222 5.964C80.5382 5.964 81.8222 6.192 82.9742 6.648C84.1262 7.08 85.1102 7.704 85.9262 8.52C86.7662 9.312 87.4142 10.284 87.8702 11.436C88.3262 12.588 88.5542 13.86 88.5542 15.252ZM75.9542 15.252C75.9542 16.716 76.2302 17.844 76.7822 18.636C77.3582 19.404 78.1502 19.788 79.1582 19.788C80.1662 19.788 80.9342 19.392 81.4622 18.6C82.0142 17.808 82.2902 16.692 82.2902 15.252C82.2902 13.812 82.0142 12.708 81.4622 11.94C80.9102 11.148 80.1302 10.752 79.1222 10.752C78.1142 10.752 77.3342 11.148 76.7822 11.94C76.2302 12.708 75.9542 13.812 75.9542 15.252ZM97.66 23.964C97.42 24.036 97.036 24.108 96.508 24.18C96.004 24.252 95.476 24.288 94.924 24.288C94.396 24.288 93.916 24.252 93.484 24.18C93.076 24.108 92.728 23.964 92.44 23.748C92.152 23.532 91.924 23.244 91.756 22.884C91.612 22.5 91.54 22.008 91.54 21.408V10.608C91.54 10.056 91.636 9.588 91.828 9.204C92.044 8.796 92.344 8.436 92.728 8.124C93.112 7.812 93.58 7.536 94.132 7.296C94.708 7.032 95.32 6.804 95.968 6.612C96.616 6.42 97.288 6.276 97.984 6.18C98.68 6.06 99.376 6 100.072 6C101.224 6 102.136 6.228 102.808 6.684C103.48 7.116 103.816 7.836 103.816 8.844C103.816 9.18 103.768 9.516 103.672 9.852C103.576 10.164 103.456 10.452 103.312 10.716C102.808 10.716 102.292 10.74 101.764 10.788C101.236 10.836 100.72 10.908 100.216 11.004C99.712 11.1 99.232 11.208 98.776 11.328C98.344 11.424 97.972 11.544 97.66 11.688V23.964ZM114.925 24.576C113.509 24.576 112.189 24.384 110.965 24C109.765 23.592 108.709 22.992 107.797 22.2C106.909 21.408 106.201 20.412 105.673 19.212C105.169 18.012 104.917 16.608 104.917 15C104.917 13.416 105.169 12.06 105.673 10.932C106.201 9.78 106.885 8.844 107.725 8.124C108.565 7.38 109.525 6.84 110.605 6.504C111.685 6.144 112.789 5.964 113.917 5.964C115.189 5.964 116.341 6.156 117.373 6.54C118.429 6.924 119.329 7.452 120.073 8.124C120.841 8.796 121.429 9.6 121.837 10.536C122.269 11.472 122.485 12.492 122.485 13.596C122.485 14.412 122.257 15.036 121.801 15.468C121.345 15.9 120.709 16.176 119.893 16.296L111.001 17.628C111.265 18.42 111.805 19.02 112.621 19.428C113.437 19.812 114.373 20.004 115.429 20.004C116.413 20.004 117.337 19.884 118.201 19.644C119.089 19.38 119.809 19.08 120.361 18.744C120.745 18.984 121.069 19.32 121.333 19.752C121.597 20.184 121.729 20.64 121.729 21.12C121.729 22.2 121.225 23.004 120.217 23.532C119.449 23.94 118.585 24.216 117.625 24.36C116.665 24.504 115.765 24.576 114.925 24.576ZM113.917 10.428C113.341 10.428 112.837 10.524 112.405 10.716C111.997 10.908 111.661 11.16 111.397 11.472C111.133 11.76 110.929 12.096 110.785 12.48C110.665 12.84 110.593 13.212 110.569 13.596L116.725 12.588C116.653 12.108 116.389 11.628 115.933 11.148C115.477 10.668 114.805 10.428 113.917 10.428Z" fill="#3269F2"/>
</svg>
